<?xml version="1.0" encoding="UTF-8" standalone="no" ?>
<!DOCTYPE svg PUBLIC "-//W3C//DTD SVG 1.1//EN" "http://www.w3.org/Graphics/SVG/1.1/DTD/svg11.dtd">
<svg xmlns="http://www.w3.org/2000/svg" xmlns:xlink="http://www.w3.org/1999/xlink" version="1.1" width="600" height="600" viewBox="0 0 600 600" xml:space="preserve">
<desc>Created with Fabric.js 4.2.0</desc>
<defs>
</defs>
<rect x="0" y="0" width="100%" height="100%" fill="transparent"></rect>
<g transform="matrix(1 0 0 1 300 300)" id="15b78a9a-db13-424d-a9a2-0c5d77305502"  >
<rect style="stroke: none; stroke-width: 1; stroke-dasharray: none; stroke-linecap: butt; stroke-dashoffset: 0; stroke-linejoin: miter; stroke-miterlimit: 4; fill: rgb(255,255,255); fill-rule: nonzero; opacity: 1;" vector-effect="non-scaling-stroke"  x="-300" y="-300" rx="0" ry="0" width="600" height="600" />
</g>
<g transform="matrix(Infinity NaN NaN Infinity 0 0)" id="cc39e3a2-8356-4a31-9781-138c6e2a9070"  >
</g>
<g transform="matrix(9.18 0 0 9.18 300 300)" id="c1b84b76-a20e-4cc2-8215-df2b6f312a38"  >
<rect style="stroke: rgb(0,0,0); stroke-width: 0; stroke-dasharray: none; stroke-linecap: butt; stroke-dashoffset: 0; stroke-linejoin: miter; stroke-miterlimit: 4; fill: rgb(53,52,52); fill-rule: nonzero; opacity: 1;" vector-effect="non-scaling-stroke"  x="-33.0835" y="-33.0835" rx="0" ry="0" width="66.167" height="66.167" />
</g>
<g transform="matrix(3.43 0 0 3.43 401 348.99)" id="839d9166-0512-4e81-b28c-917a676364b5"  >
<path style="stroke: rgb(0,0,0); stroke-width: 0; stroke-dasharray: none; stroke-linecap: butt; stroke-dashoffset: 0; stroke-linejoin: miter; stroke-miterlimit: 4; fill: rgb(202,194,194); fill-rule: nonzero; opacity: 1;" vector-effect="non-scaling-stroke"  transform=" translate(-50, -50)" d="M 81.123 47.531 C 83.818 50.271 83.818 54.711999999999996 81.123 57.405 L 54.954 83.574 C 52.214 86.315 47.82 86.315 45.081 83.574 L 18.91 57.405 C 16.169 54.712 16.169 50.271 18.91 47.531 C 22.689 43.988 33.082 51.784 42.436 55.42 L 42.436 18.999 C 42.436 16.448 44.513 14.37 47.064 14.37 L 54.055 14.37 C 56.607 14.37 58.684 16.448 58.684 18.999 L 58.684 54.947 C 67.518 51.216 76.967 44.319 81.123 47.531 z" stroke-linecap="round" />
</g>
<g transform="matrix(-3.43 0 0 -3.43 198.97 250.99)"  >
<path style="stroke: rgb(0,0,0); stroke-width: 0; stroke-dasharray: none; stroke-linecap: butt; stroke-dashoffset: 0; stroke-linejoin: miter; stroke-miterlimit: 4; fill: rgb(202,194,194); fill-rule: nonzero; opacity: 1;" vector-effect="non-scaling-stroke"  transform=" translate(-50, -50)" d="M 81.123 47.531 C 83.818 50.271 83.818 54.711999999999996 81.123 57.405 L 54.954 83.574 C 52.214 86.315 47.82 86.315 45.081 83.574 L 18.91 57.405 C 16.169 54.712 16.169 50.271 18.91 47.531 C 22.689 43.988 33.082 51.784 42.436 55.42 L 42.436 18.999 C 42.436 16.448 44.513 14.37 47.064 14.37 L 54.055 14.37 C 56.607 14.37 58.684 16.448 58.684 18.999 L 58.684 54.947 C 67.518 51.216 76.967 44.319 81.123 47.531 z" stroke-linecap="round" />
</g>
</svg>